<svg width="25" height="30" viewBox="0 0 25 30" fill="none" xmlns="http://www.w3.org/2000/svg">
<path d="M10.3816 15.2501C10.3823 15.3074 10.3827 15.3647 10.3827 15.4221C10.3827 19.5909 8.33938 23.2801 5.20431 25.5333C2.05358 23.2801 0 19.5909 0 15.4221C0 13.0925 0.641241 10.9128 1.75684 9.04965C1.73753 9.08191 1.71836 9.11426 1.69933 9.1467C3.50245 12.323 6.65999 14.6223 10.3816 15.2501Z" fill="white"/>
<path d="M1.69934 9.14669C2.58619 7.6346 3.78374 6.32677 5.20433 5.31088C8.29622 7.533 10.3263 11.1519 10.3816 15.2501C6.66 14.6223 3.50246 12.323 1.69934 9.14669Z" fill="white" fill-opacity="0.5"/>
<path d="M5.20416 5.31088C7.23851 3.85609 9.73025 2.99997 12.4219 2.99997C17.0081 2.99997 21.0138 5.48529 23.1657 9.18257C21.0326 12.9112 17.0294 15.4221 12.4427 15.4221C11.7404 15.4221 11.0517 15.3632 10.3814 15.2501C10.3261 11.1519 8.29605 7.533 5.20416 5.31088Z" fill="white"/>
<path d="M10.3837 27.6777C11.0469 27.7872 11.7279 27.8442 12.4221 27.8442C19.223 27.8442 24.7475 22.3788 24.843 15.6006C24.1604 15.4832 23.4588 15.4221 22.7429 15.4221C15.9718 15.4221 10.4724 20.8939 10.3837 27.6777Z" fill="white"/>
</svg>
