<svg width="14" height="14" viewBox="0 0 14 14" fill="none" xmlns="http://www.w3.org/2000/svg">
<path fill-rule="evenodd" clip-rule="evenodd" d="M2.43785 4.34894L2.43791 4.34905C1.9938 5.11668 1.73962 6.00792 1.73962 6.95852C1.73962 8.66594 2.55964 10.1819 3.82737 11.134C5.0951 10.1819 5.91512 8.66594 5.91512 6.95852C5.91512 6.92352 5.91477 6.8886 5.91409 6.85376C6.25168 6.92235 6.60111 6.95836 6.95895 6.95836C8.89086 6.95836 10.5776 5.90885 11.4801 4.34892C10.5776 2.78901 8.89086 1.7395 6.95897 1.7395C5.02706 1.7395 3.3403 2.78902 2.43785 4.34894ZM2.52253 6.95852C2.52253 6.28406 2.67289 5.64475 2.94225 5.07224C3.51599 5.76283 4.26448 6.30308 5.11989 6.62517C5.12806 6.73522 5.13221 6.84638 5.13221 6.95852C5.13221 8.18591 4.63428 9.29685 3.82737 10.1007C3.02047 9.29685 2.52253 8.18591 2.52253 6.95852ZM6.95895 6.17553C6.56997 6.17553 6.19262 6.1255 5.83302 6.03147C5.64509 4.98328 5.14415 4.04365 4.43039 3.31274C5.14805 2.81414 6.01958 2.52233 6.95897 2.52233C8.43281 2.52233 9.73961 3.24062 10.5472 4.34892C9.73961 5.45723 8.4328 6.17553 6.95895 6.17553ZM3.37079 4.34901C3.78226 4.91368 4.32332 5.37711 4.95004 5.69587C4.73684 4.97627 4.3459 4.33288 3.82737 3.81629C3.66159 3.98145 3.50885 4.15958 3.37079 4.34901ZM6.95897 11.3943C6.8948 11.3943 6.83099 11.393 6.76755 11.3903C7.13888 9.31583 8.95283 7.74114 11.1345 7.74114C11.1986 7.74114 11.2624 7.7425 11.3259 7.74518C10.9546 9.81966 9.1406 11.3943 6.95897 11.3943ZM11.1345 6.95831C11.4916 6.95831 11.8403 6.99418 12.1773 7.0625C12.1218 9.89671 9.80673 12.1772 6.95897 12.1772C6.60184 12.1772 6.25308 12.1413 5.91611 12.073C5.97162 9.23878 8.2867 6.95831 11.1345 6.95831Z" fill="#5F869F"/>
</svg>
