<svg width="17" height="17" viewBox="0 0 17 17" fill="none" xmlns="http://www.w3.org/2000/svg">
    <path d="M5.37865 11.2003C5.15029 11.4724 5.18597 11.8781 5.45791 12.1062C5.72986 12.3344 6.13555 12.2991 6.36389 12.027L9.85305 7.86876L10.0865 10.5369C10.1009 10.7021 10.1767 10.8473 10.2893 10.9519C10.4179 11.0714 10.5947 11.1381 10.7833 11.1216C11.137 11.0905 11.3986 10.7788 11.3678 10.4251L10.9989 6.21036C10.9681 5.85646 10.656 5.59468 10.3022 5.62563L6.08749 5.9943C5.91074 6.00976 5.75643 6.09576 5.65091 6.22152C5.54539 6.34727 5.48749 6.51415 5.50295 6.6909C5.53382 7.04471 5.84577 7.30647 6.19956 7.27545L8.8678 7.04206L5.37865 11.2003Z" fill="#5F869F"/>
    <path fill-rule="evenodd" clip-rule="evenodd" d="M14.4464 13.8895C11.6064 17.2741 6.56038 17.7156 3.17578 14.8756C-0.208813 12.0356 -0.650284 6.98952 2.18973 3.60492C5.02974 0.220321 10.0758 -0.221151 13.4604 2.61886C16.845 5.45888 17.2865 10.5049 14.4464 13.8895ZM13.425 13.0325C11.0584 15.853 6.85333 16.2209 4.03283 13.8542C1.21234 11.4875 0.844444 7.28247 3.21112 4.46197C5.5778 1.64147 9.78284 1.27358 12.6033 3.64026C15.4238 6.00694 15.7917 10.212 13.425 13.0325Z" fill="#5F869F"/>
</svg>
