<svg width="18" height="18" viewBox="0 0 18 18" fill="none" xmlns="http://www.w3.org/2000/svg">
    <path d="M14.9055 13.1326L15.1443 12.6999L15.386 12.2615L16.986 11.9533C17.2817 11.8951 17.5455 11.7305 17.7308 11.4883C17.9162 11.2461 18.0112 10.942 17.999 10.6298L17.9367 7.55597C17.9341 7.3239 17.8725 7.09511 17.758 6.89272C17.6434 6.69022 17.4801 6.52128 17.2844 6.40267C17.1634 6.32835 17.0321 6.27461 16.8954 6.24355L15.2807 5.89005C15.1338 5.5897 14.968 5.29934 14.7843 5.02085L15.2907 3.41407C15.3843 3.1211 15.3742 2.80111 15.2624 2.51011C15.1505 2.21911 14.9441 1.97564 14.6791 1.82234L12.0649 0.242458C11.8056 0.0789174 11.5009 0.0134765 11.2043 0.0576138C10.9077 0.101751 10.6379 0.252634 10.4422 0.483859L9.36611 1.74632C9.0421 1.71795 8.71701 1.71171 8.39322 1.72768L7.33383 0.434645C7.23434 0.333237 7.12002 0.248747 6.9952 0.184439C6.79915 0.0662485 6.57767 0.00266566 6.35295 8.20076e-05C6.12823 -0.00250164 5.90817 0.0560046 5.71483 0.169719L3.14058 1.65021C2.88428 1.79968 2.68836 2.03779 2.58635 2.32372C2.48435 2.60966 2.48262 2.92563 2.58146 3.21754L3.09396 4.84044L2.61355 5.71146L1.03031 6.02985C0.733213 6.08409 0.466774 6.24577 0.278269 6.48618C0.0897631 6.7266 -0.00861957 7.03018 0.000592978 7.34316L0.0628618 10.417C0.0654382 10.6491 0.127068 10.8779 0.24157 11.0803C0.356072 11.2828 0.519419 11.4517 0.71521 11.5703C0.836099 11.6446 0.967456 11.6984 1.10411 11.7295L2.71896 12.0829C2.86576 12.3833 3.03154 12.6736 3.2152 12.9522L2.7088 14.5589C2.61532 14.8519 2.62537 15.1718 2.73719 15.4628C2.849 15.7538 3.05547 15.9974 3.32043 16.1507L5.95697 17.744C6.21628 17.9076 6.52095 17.9731 6.81756 17.9289C7.11428 17.8848 7.38406 17.7338 7.57967 17.5027L8.65584 16.2402C8.97985 16.2685 9.30484 16.2748 9.62863 16.2588L10.723 17.5426C10.817 17.6509 10.9272 17.7431 11.0491 17.8155C11.2451 17.9337 11.4666 17.9973 11.6913 17.9999C11.916 18.0025 12.136 17.9439 12.3294 17.8303L14.859 16.3228C15.1152 16.1733 15.3112 15.9352 15.4132 15.6493C15.5152 15.3633 15.517 15.0473 15.4181 14.7554L14.9055 13.1326ZM11.6323 16.65L10.0807 14.8317C9.41861 14.9478 8.73909 14.9407 8.07386 14.8106L6.55006 16.6147L3.91353 15.0214L4.63163 12.7607C4.19902 12.2196 3.85584 11.6094 3.61643 10.9554L1.34321 10.4318L1.28094 7.35789L3.55389 6.90972C3.77564 6.25805 4.10839 5.65477 4.53671 5.12789L3.79293 2.80351L6.36719 1.32302L7.91895 3.14131C8.58093 3.02518 9.26045 3.03231 9.92568 3.16237L11.4495 1.35828L14.0861 2.95166L13.3679 5.21233C13.8006 5.75344 14.1438 6.36369 14.3831 7.0176L16.6564 7.54124L16.7186 10.6151L14.4457 11.0632C14.2239 11.715 13.8912 12.3183 13.4628 12.8451L14.2067 15.1695L11.6323 16.65Z" fill="#5F869F"/>
    <path d="M7.03826 12.5695C6.34469 12.169 5.78546 11.5719 5.43125 10.8537C5.07705 10.1354 4.94378 9.32831 5.04832 8.53431C5.15285 7.74031 5.49048 6.99514 6.01851 6.39303C6.54654 5.79092 7.24126 5.35892 8.01486 5.15164C8.78836 4.94437 9.60606 4.97114 10.3644 5.22856C11.1228 5.48598 11.7877 5.9625 12.2753 6.59785C12.7628 7.23321 13.0509 7.99881 13.1033 8.79801C13.1557 9.59711 12.9699 10.3938 12.5695 11.0874C12.3076 11.5519 11.9556 11.9595 11.5342 12.2862C11.1128 12.613 10.6304 12.8524 10.1153 12.9905C9.60016 13.1285 9.06266 13.1623 8.53436 13.09C8.00596 13.0178 7.49736 12.8408 7.03826 12.5695ZM10.4126 6.72504C10.1078 6.53946 9.76846 6.41764 9.41516 6.36694C9.06196 6.31624 8.70206 6.33773 8.35736 6.43009C8.01266 6.52245 7.69026 6.68378 7.40976 6.9043C7.12916 7.12481 6.89623 7.40001 6.72504 7.71311C6.53946 8.01791 6.41764 8.35721 6.36694 8.71041C6.31624 9.06371 6.33773 9.42351 6.43009 9.76821C6.52245 10.1129 6.68378 10.4353 6.9043 10.7159C7.12486 10.9965 7.39996 11.2294 7.71306 11.4006C8.01796 11.5862 8.35716 11.708 8.71046 11.7587C9.06366 11.8094 9.42356 11.7879 9.76826 11.6955C10.113 11.6032 10.4354 11.4418 10.716 11.2213C10.9965 11.0008 11.2294 10.7256 11.4006 10.4125C11.5862 10.1077 11.708 9.76841 11.7587 9.41521C11.8094 9.06191 11.7879 8.70211 11.6956 8.35741C11.6032 8.01271 11.4419 7.69031 11.2214 7.40971C11.0008 7.12911 10.7257 6.89623 10.4126 6.72504Z" fill="#5F869F"/>
</svg>
