<svg width="24" height="24" viewBox="0 0 24 24" fill="none" xmlns="http://www.w3.org/2000/svg">
<rect width="24" height="24" rx="12" fill="#F7FCFF"/>
<path d="M12.316 7.81C12.0127 7.81 11.8003 7.74933 11.679 7.628C11.5577 7.498 11.497 7.33767 11.497 7.147V6.939C11.497 6.74833 11.5577 6.59233 11.679 6.471C11.8003 6.341 12.0127 6.276 12.316 6.276C12.6193 6.276 12.8317 6.341 12.953 6.471C13.0743 6.59233 13.135 6.74833 13.135 6.939V7.147C13.135 7.33767 13.0743 7.498 12.953 7.628C12.8317 7.74933 12.6193 7.81 12.316 7.81ZM9.378 15.116H11.796V10.176H9.378V9.292H12.836V15.116H15.098V16H9.378V15.116Z" fill="#5F869F"/>
</svg>
