<svg width="28" height="28" viewBox="0 0 28 28" fill="none" xmlns="http://www.w3.org/2000/svg">
<g clip-path="url(#clip0_3632_70531)">
<path fill-rule="evenodd" clip-rule="evenodd" d="M4.3609 6.93511C6.48515 9.85071 9.92262 11.7403 13.7995 11.7403C17.6763 11.7403 21.1138 9.85068 23.2381 6.93506C21.1138 4.01946 17.6764 2.12985 13.7995 2.12985C9.92263 2.12985 6.48515 4.01948 4.3609 6.93511ZM25.692 6.93506C23.3181 2.8314 18.8813 0.0704651 13.7995 0.0704651C8.71774 0.0704651 4.28083 2.83142 1.90698 6.93511C4.28084 11.0388 8.71773 13.7997 13.7995 13.7997C18.8812 13.7997 23.3181 11.0388 25.692 6.93506Z" fill="white"/>
<path fill-rule="evenodd" clip-rule="evenodd" d="M5.56189 22.0661C7.68441 19.9513 8.99419 17.0287 8.99419 13.7998C8.99419 10.5709 7.68441 7.64838 5.56189 5.53357C3.43937 7.64838 2.12958 10.5709 2.12958 13.7998C2.12958 17.0287 3.43937 19.9513 5.56189 22.0661ZM5.56189 24.7842C2.2272 22.2794 0.0701904 18.2915 0.0701904 13.7998C0.0701904 9.30812 2.2272 5.32021 5.56189 2.81543C8.89657 5.32021 11.0536 9.30812 11.0536 13.7998C11.0536 18.2915 8.89657 22.2794 5.56189 24.7842Z" fill="white"/>
<path fill-rule="evenodd" clip-rule="evenodd" d="M13.2959 25.459C13.4628 25.4661 13.6306 25.4697 13.7994 25.4697C19.5381 25.4697 24.3096 21.3271 25.2863 15.8698C25.1195 15.8628 24.9516 15.8592 24.7828 15.8592C19.0442 15.8592 14.2727 20.0017 13.2959 25.459ZM27.526 14.0739C26.6396 13.8942 25.7222 13.7998 24.7828 13.7998C17.292 13.7998 11.2023 19.799 11.0563 27.255C11.9427 27.4347 12.86 27.529 13.7994 27.529C21.2903 27.529 27.38 21.5298 27.526 14.0739Z" fill="white"/>
</g>
<defs>
<clipPath id="clip0_3632_70531">
<rect width="27.5964" height="27.5964" fill="white"/>
</clipPath>
</defs>
</svg>
