<svg width="80" height="30" xmlns="http://www.w3.org/2000/svg" fill="none">
  <path fill="white" d="m5.70412,7.93215c2.12425,2.9156 5.56172,4.8052 9.43856,4.8052c3.8769,0 7.3144,-1.8896 9.4386,-4.8053c-2.1242,-2.9156 -5.5617,-4.8052 -9.4386,-4.8052c-3.87683,0 -7.31431,1.8897 -9.43856,4.8053zm21.33106,-0.0001c-2.3738,-4.1036 -6.8107,-6.8646 -11.8925,-6.8646c-5.08172,0 -9.51863,2.761 -11.89248,6.8647c2.37386,4.1036 6.81075,6.8646 11.89248,6.8646c5.0818,0 9.5187,-2.761 11.8925,-6.8647z" clip-rule="evenodd" fill-rule="evenodd"/>
  <path fill="white" d="m6.90523,23.06305c2.12252,-2.1148 3.4323,-5.0373 3.4323,-8.2662c0,-3.2289 -1.30978,-6.1514 -3.4323,-8.2663c-2.12252,2.1149 -3.43231,5.0374 -3.43231,8.2663c0,3.2289 1.30979,6.1514 3.43231,8.2662zm0,2.7182c-3.33468,-2.5048 -5.4917,-6.4927 -5.4917,-10.9844c0,-4.4917 2.15701,-8.4796 5.4917,-10.9844c3.33468,2.5048 5.49165,6.4927 5.49165,10.9844c0,4.4917 -2.15697,8.4796 -5.49165,10.9844z" clip-rule="evenodd" fill-rule="evenodd"/>
  <path fill="white" d="m14.63928,26.45605c0.1668,0.0071 0.3347,0.0106 0.5035,0.0106c5.7386,0 10.5101,-4.1425 11.4869,-9.5998c-0.1669,-0.0071 -0.3347,-0.0106 -0.5035,-0.0106c-5.7387,0 -10.5102,4.1425 -11.4869,9.5998zm14.2301,-11.3851c-0.8864,-0.1798 -1.8038,-0.2741 -2.7432,-0.2741c-7.4909,0 -13.5806,5.9992 -13.7266,13.4551c0.8864,0.1798 1.8038,0.2741 2.7432,0.2741c7.4909,0 13.5806,-5.9992 13.7266,-13.4551z" clip-rule="evenodd" fill-rule="evenodd"/>
  <path fill="white" d="m43.50758,21.26655c3.3942,0 5.3954,-2.0365 5.3954,-5.4747l0,-0.3879c0,-0.5025 -0.3085,-0.8199 -0.7934,-0.8199l-3.7556,0c-0.4408,0 -0.7582,0.2821 -0.7582,0.6965c0,0.4143 0.3174,0.6964 0.7582,0.6964l2.9621,0l0,0.2292c0,2.1335 -1.5516,3.597 -3.8085,3.597c-2.5919,0 -4.1964,-1.9836 -4.1964,-5.1838c0,-3.1473 1.5781,-5.034 4.1964,-5.034c1.6045,0 2.8388,0.7758 3.4912,2.2481c0.2027,0.4673 0.4408,0.6612 0.8287,0.6612c0.4408,0 0.7229,-0.2909 0.7229,-0.7229c0,-0.1939 -0.0177,-0.3967 -0.1235,-0.67c-0.6876,-1.7808 -2.5918,-2.9798 -4.9193,-2.9798c-3.5616,0 -5.8273,2.5302 -5.8273,6.5062c0,4.0465 2.2745,6.6384 5.8273,6.6384zm14.6063,0c3.6058,0 5.8627,-2.5302 5.8627,-6.5679c0,-4.0377 -2.2569,-6.5767 -5.8627,-6.5767c-3.6057,0 -5.8626,2.539 -5.8626,6.5767c0,4.0377 2.2569,6.5679 5.8626,6.5679zm0,-1.4634c-2.6007,0 -4.2316,-1.9748 -4.2316,-5.1045c0,-3.1385 1.6309,-5.1133 4.2316,-5.1133c2.6008,0 4.2317,1.9748 4.2317,5.1133c0,3.1297 -1.6309,5.1045 -4.2317,5.1045zm13.663,1.3752c0.5025,0 0.767,-0.1939 0.9698,-0.7229l4.2757,-11.1169c0.0618,-0.1675 0.097,-0.3174 0.097,-0.4408c0,-0.3967 -0.335,-0.6877 -0.8022,-0.6877c-0.3879,0 -0.5995,0.1587 -0.7494,0.5643l-3.7644,10.3499l-0.0529,0l-3.7644,-10.3499c-0.1411,-0.3879 -0.3791,-0.5643 -0.7582,-0.5643c-0.4761,0 -0.7934,0.2733 -0.7934,0.6877c0,0.1234 0.0264,0.2645 0.0969,0.4408l4.267,11.1081c0.2027,0.529 0.476,0.7317 0.9785,0.7317z"/>
</svg>
