<svg xmlns="http://www.w3.org/2000/svg" fill="none" viewBox="0.48 0.98 17.89 17.89">
    <path fill-rule="evenodd" clip-rule="evenodd"
          d="M1.67916 5.45554L1.67923 5.45565C0.917927 6.77158 0.482208 8.29939 0.482208 9.92896C0.482208 12.856 1.88796 15.4547 4.06121 17.0869C6.23445 15.4547 7.6402 12.856 7.6402 9.92896C7.6402 9.86901 7.63961 9.80919 7.63843 9.74952C8.21716 9.8671 8.81618 9.92883 9.42963 9.92883C12.7415 9.92883 15.633 8.12966 17.1801 5.4555C15.633 2.78136 12.7415 0.982208 9.42965 0.982208C6.11781 0.982208 3.22622 2.78138 1.67916 5.45554ZM1.82433 9.92896C1.82433 8.77277 2.08207 7.67686 2.54381 6.69543C3.52738 7.87932 4.81052 8.80549 6.27696 9.35765C6.29095 9.54625 6.29808 9.73677 6.29808 9.92896C6.29808 12.0331 5.44448 13.9375 4.06121 15.3156C2.67794 13.9375 1.82433 12.0331 1.82433 9.92896ZM9.42963 8.58683C8.76281 8.58683 8.11594 8.50106 7.49948 8.33987C7.17734 6.54296 6.31861 4.93214 5.09503 3.67913C6.32528 2.82441 7.8193 2.3242 9.42965 2.3242C11.9562 2.3242 14.1965 3.55556 15.5809 5.4555C14.1965 7.35546 11.9562 8.58683 9.42963 8.58683ZM3.27844 5.45559C3.98383 6.42364 4.9114 7.21812 5.98583 7.76458C5.62035 6.53091 4.95015 5.42791 4.06121 4.54228C3.77699 4.82544 3.51513 5.13082 3.27844 5.45559ZM9.42964 17.5334C9.31964 17.5334 9.21024 17.5311 9.10149 17.5265C9.73806 13.9702 12.8477 11.2708 16.5876 11.2708C16.6976 11.2708 16.807 11.2731 16.9158 11.2777C16.2792 14.8339 13.1696 17.5334 9.42964 17.5334ZM16.5876 9.92877C17.1999 9.92877 17.7977 9.99026 18.3754 10.1074C18.2802 14.966 14.3115 18.8754 9.42964 18.8754C8.81742 18.8754 8.21956 18.8139 7.64189 18.6968C7.73705 13.8381 11.7058 9.92877 16.5876 9.92877Z"
          fill="white"></path>
</svg>
