<svg width="16" height="15" viewBox="0 0 16 15" fill="none" xmlns="http://www.w3.org/2000/svg">
    <path d="M6.76801 7.39618C6.76847 7.43073 6.76871 7.46533 6.76871 7.49999C6.76871 10.017 5.53501 12.2444 3.64217 13.6047C1.73987 12.2444 0.5 10.017 0.5 7.49999C0.5 6.09351 0.887157 4.77744 1.56071 3.65256C1.54905 3.67204 1.53748 3.69157 1.52599 3.71116C2.61465 5.6289 4.52105 7.0171 6.76801 7.39618Z" fill="#5F869F"/>
    <path opacity="0.5" d="M1.526 3.71117C2.06145 2.79822 2.78448 2.00861 3.64218 1.39525C5.50895 2.73688 6.73462 4.92183 6.76802 7.39619C4.52107 7.01711 2.61466 5.62891 1.526 3.71117Z" fill="#5F869F"/>
    <path d="M3.64221 1.39524C4.87047 0.516891 6.37489 0 8.00004 0C10.769 0 13.1875 1.50055 14.4867 3.73283C13.1988 5.98405 10.7818 7.5 8.01254 7.5C7.58852 7.5 7.17276 7.46446 6.76805 7.39618C6.73465 4.92183 5.50898 2.73688 3.64221 1.39524Z" fill="#5F869F"/>
    <path d="M6.76929 14.8995C7.16972 14.9656 7.58084 15 8 15C12.1061 15 15.4416 11.7002 15.4992 7.60781C15.0871 7.53693 14.6635 7.5 14.2313 7.5C10.1432 7.5 6.8228 10.8037 6.76929 14.8995Z" fill="#5F869F"/>
</svg>
