<svg width="1234" height="395" viewBox="0 0 1234 395" fill="none" xmlns="http://www.w3.org/2000/svg">
<path d="M164.385 194.777C164.397 195.683 164.403 196.591 164.403 197.5C164.403 263.51 132.048 321.926 82.4066 357.603C32.5169 321.926 0 263.51 0 197.5C0 160.613 10.1536 126.098 27.8183 96.5971C27.5125 97.1078 27.2089 97.6201 26.9076 98.1338C55.4588 148.428 105.456 184.835 164.385 194.777Z" fill="white"/>
<path d="M26.9074 98.1341C40.95 74.1912 59.9123 53.4828 82.4063 37.3969C131.364 72.5826 163.508 129.885 164.385 194.777C105.456 184.836 55.4585 148.429 26.9074 98.1341Z" fill="white" fill-opacity="0.5"/>
<path d="M82.4069 37.3967C114.619 14.3611 154.074 0.805084 196.695 0.805084C269.314 0.805084 332.741 40.1584 366.815 98.7021C333.039 157.743 269.651 197.5 197.023 197.5C185.903 197.5 174.999 196.568 164.385 194.777C163.509 129.885 131.365 72.5824 82.4069 37.3967Z" fill="white"/>
<path d="M164.418 391.56C174.92 393.293 185.702 394.195 196.695 394.195C304.383 394.195 391.858 307.656 393.37 200.327C382.563 198.468 371.453 197.5 360.117 197.5C252.902 197.5 165.822 284.143 164.418 391.56Z" fill="white"/>
<path d="M526.719 299.476C509.141 272.647 503.128 246.742 503.128 197.863C503.128 153.456 509.758 127.552 528.415 98.5635C546.456 70.5006 577.294 55.2356 615.688 55.2356C684.304 55.2356 726.552 101.339 726.552 175.506V200.176C726.552 206.19 721.618 211.124 715.605 211.124H543.218C539.98 211.124 537.667 213.283 537.667 216.675C537.667 275.422 566.192 308.419 616.767 308.419C651.923 308.419 679.832 294.696 690.317 256.765C692.013 250.751 696.947 247.359 702.961 247.359H713.909C720.539 247.359 724.394 251.676 723.314 258.307C716.684 307.186 673.356 340.645 616.767 340.645C575.598 340.645 544.297 326.305 526.719 299.476ZM686.462 180.285C689.7 180.285 692.013 178.127 692.013 174.735C692.013 118.763 664.567 87.4617 616.305 87.4617C568.505 87.4617 538.284 120.921 538.284 174.735C538.284 177.973 540.442 180.285 543.834 180.285H686.462Z" fill="white"/>
<path d="M783.143 291.148C765.565 264.319 763.869 237.335 763.869 197.862C763.869 158.389 765.565 131.405 783.143 104.576C802.417 74.9709 834.181 55.2343 875.967 55.2343C906.189 55.2343 932.555 63.4065 950.596 79.9051C969.253 97.483 979.121 123.233 979.121 148.521C979.121 154.534 975.883 159.468 969.716 159.468H955.993C951.058 159.468 945.507 156.693 945.507 150.679C945.507 133.101 938.877 114.444 925.154 102.417C913.127 92.5488 896.012 87.6147 875.813 87.6147C845.591 87.6147 820.92 102.417 808.276 129.863C800.104 147.441 798.408 166.099 798.408 197.862C798.408 229.626 800.104 248.437 808.276 265.861C820.92 293.307 845.591 308.11 875.813 308.11C900.483 308.11 918.678 300.4 929.626 287.756C940.111 275.729 945.045 259.231 945.045 245.507C945.045 238.415 950.596 236.102 955.53 236.102H968.174C974.187 236.102 979.121 241.036 979.121 247.049C979.121 269.561 970.332 292.536 955.53 309.035C937.49 328.771 909.427 340.336 875.967 340.336C834.181 340.644 802.263 320.908 783.143 291.148Z" fill="white"/>
<path d="M1029.08 291.148C1014.74 268.02 1009.8 247.204 1009.8 197.862C1009.8 148.521 1014.12 127.088 1029.08 104.576C1049.43 73.8916 1081.81 55.2343 1121.9 55.2343C1161.99 55.2343 1195.45 73.2748 1214.73 104.576C1229.53 127.088 1234 148.521 1234 197.862C1234 247.204 1229.68 268.636 1214.73 291.148C1195.45 322.449 1161.99 340.49 1121.9 340.49C1081.81 340.49 1048.2 322.449 1029.08 291.148ZM1189.28 266.015C1196.99 250.133 1199.15 235.331 1199.15 198.016C1199.15 160.702 1196.99 145.899 1189.28 130.018C1177.26 104.267 1151.35 87.7688 1121.75 87.7688C1092.14 87.7688 1066.86 104.267 1054.21 130.018C1046.5 145.899 1044.34 160.702 1044.34 198.016C1044.34 235.331 1046.5 250.133 1054.21 266.015C1066.86 291.765 1092.14 308.264 1121.75 308.264C1151.51 308.264 1177.26 291.765 1189.28 266.015Z" fill="white"/>
</svg>
