<svg width="127" height="42" viewBox="0 0 127 42" fill="none" xmlns="http://www.w3.org/2000/svg">
<path d="M17.7147 20.7231C17.7159 20.8152 17.7166 20.9075 17.7166 20.9999C17.7166 27.7119 14.4267 33.6516 9.37912 37.2793C4.30633 33.6516 1 27.7119 1 20.9999C1 17.2493 2.03242 13.7398 3.82857 10.7401C3.79747 10.792 3.76661 10.8441 3.73598 10.8964C6.63906 16.0103 11.7228 19.7122 17.7147 20.7231Z" stroke="#67DEE5" stroke-width="1.5"/>
<path d="M3.73584 10.8965C5.16369 8.46196 7.09179 6.35632 9.37899 4.7207C14.357 8.2984 17.6255 14.1249 17.7146 20.7232C11.7227 19.7123 6.63893 16.0105 3.73584 10.8965Z" stroke="#67DEE5" stroke-width="1.5"/>
<path d="M9.37939 4.72065C12.6548 2.37838 16.6665 1 21.0003 1C28.3842 1 34.8335 5.00145 38.2981 10.9542C34.8637 16.9575 28.4184 21 21.0336 21C19.9029 21 18.7942 20.9052 17.715 20.7231C17.6259 14.1249 14.3574 8.29834 9.37939 4.72065Z" stroke="#67DEE5" stroke-width="1.5"/>
<path d="M17.7183 40.732C18.7861 40.9083 19.8824 41 21.0002 41C31.9499 41 40.8444 32.2006 40.9981 21.2875C39.8992 21.0985 38.7696 21 37.617 21C26.7153 21 17.861 29.8098 17.7183 40.732Z" stroke="#67DEE5" stroke-width="1.5"/>
<path d="M55.8989 28.0401C54.6801 26.1799 54.2632 24.3837 54.2632 20.9946C54.2632 17.9155 54.7229 16.1194 56.0165 14.1095C57.2674 12.1637 59.4057 11.1052 62.0678 11.1052C66.8254 11.1052 69.7548 14.3019 69.7548 19.4444V21.155C69.7548 21.5719 69.4127 21.9141 68.9957 21.9141H57.0429C56.8184 21.9141 56.658 22.0637 56.658 22.2989C56.658 26.3723 58.6359 28.6602 62.1426 28.6602C64.5802 28.6602 66.5153 27.7087 67.2423 25.0787C67.3599 24.6617 67.7021 24.4265 68.119 24.4265H68.8781C69.3378 24.4265 69.6051 24.7259 69.5303 25.1856C69.0705 28.5747 66.0663 30.8947 62.1426 30.8947C59.2881 30.8947 57.1177 29.9004 55.8989 28.0401ZM66.9751 19.7758C67.1996 19.7758 67.3599 19.6261 67.3599 19.3909C67.3599 15.51 65.4569 13.3397 62.1105 13.3397C58.7963 13.3397 56.7008 15.6597 56.7008 19.3909C56.7008 19.6154 56.8505 19.7758 57.0857 19.7758H66.9751Z" fill="white"/>
<path d="M73.6787 27.4628C72.4599 25.6025 72.3423 23.7316 72.3423 20.9946C72.3423 18.2577 72.4599 16.3867 73.6787 14.5264C75.0151 12.4737 77.2175 11.1052 80.1148 11.1052C82.2103 11.1052 84.0385 11.6719 85.2894 12.8158C86.583 14.0346 87.2672 15.8201 87.2672 17.5734C87.2672 17.9904 87.0427 18.3325 86.6151 18.3325H85.6636C85.3214 18.3325 84.9365 18.1401 84.9365 17.7231C84.9365 16.5043 84.4768 15.2107 83.5253 14.3767C82.6914 13.6925 81.5047 13.3504 80.1041 13.3504C78.0086 13.3504 76.298 14.3767 75.4214 16.2798C74.8547 17.4986 74.7371 18.7922 74.7371 20.9946C74.7371 23.197 74.8547 24.5013 75.4214 25.7095C76.298 27.6125 78.0086 28.6389 80.1041 28.6389C81.8147 28.6389 83.0763 28.1043 83.8354 27.2276C84.5624 26.3937 84.9045 25.2497 84.9045 24.2982C84.9045 23.8064 85.2894 23.646 85.6315 23.646H86.5082C86.9251 23.646 87.2672 23.9882 87.2672 24.4051C87.2672 25.966 86.6578 27.559 85.6315 28.703C84.3806 30.0715 82.4348 30.8733 80.1148 30.8733C77.2175 30.8947 75.0044 29.5262 73.6787 27.4628Z" fill="white"/>
<path d="M90.7309 27.4628C89.7367 25.8591 89.3945 24.4158 89.3945 20.9946C89.3945 17.5734 89.6939 16.0873 90.7309 14.5264C92.1422 12.3989 94.3873 11.1052 97.1671 11.1052C99.9468 11.1052 102.267 12.3561 103.603 14.5264C104.63 16.0873 104.94 17.5734 104.94 20.9946C104.94 24.4158 104.64 25.9019 103.603 27.4628C102.267 29.6331 99.9468 30.884 97.1671 30.884C94.3873 30.884 92.0566 29.6331 90.7309 27.4628ZM101.839 25.7201C102.374 24.6189 102.523 23.5926 102.523 21.0053C102.523 18.418 102.374 17.3917 101.839 16.2905C101.005 14.505 99.2091 13.3611 97.1564 13.3611C95.1036 13.3611 93.3503 14.505 92.4736 16.2905C91.939 17.3917 91.7894 18.418 91.7894 21.0053C91.7894 23.5926 91.939 24.6189 92.4736 25.7201C93.3503 27.5056 95.1036 28.6495 97.1564 28.6495C99.2198 28.6495 101.005 27.5056 101.839 25.7201Z" fill="white"/>
</svg>
