<svg width="160" height="160" viewBox="0 0 160 160" fill="none" xmlns="http://www.w3.org/2000/svg">
<g clip-path="url(#clip0_77_64)">
<rect width="160" height="160" rx="80" fill="#021540"/>
<path fill-rule="evenodd" clip-rule="evenodd" d="M80 140C67.2523 140 55.4332 136.025 45.7147 129.246C40.7018 125.749 36.2477 121.507 32.5135 116.679C24.6684 106.538 20 93.814 20 80C20 68.1714 23.4229 57.1422 29.3322 47.849C33.4907 41.3092 38.8805 35.629 45.1752 31.1349C54.9944 24.1245 67.0155 20 80 20C92.3011 20 103.738 23.7018 113.256 30.0522C120.226 34.7022 126.168 40.7723 130.668 47.849C136.577 57.1422 140 68.1714 140 80C140 93.814 135.332 106.538 127.487 116.679C124.107 121.049 120.137 124.939 115.697 128.231C105.721 135.626 93.3715 140 80 140ZM73.668 75.122C70.8644 60.6649 59.2559 49.3503 44.6478 46.9833C47.4514 61.4403 59.0599 72.755 73.668 75.122ZM131.158 80C131.158 90.6703 127.891 100.578 122.303 108.776C117.779 96.0407 107.582 85.9925 94.7516 81.6712C108.253 76.6597 118.642 65.2415 122.225 51.1097C127.861 59.3305 131.158 69.2802 131.158 80ZM115.352 116.806C112.549 102.349 100.94 91.0345 86.332 88.6675C89.1356 103.125 100.744 114.439 115.352 116.806ZM36.8779 52.4634C40.8897 66.4007 51.5733 77.5124 65.2484 82.1182C52.6146 86.8076 42.7063 97.1063 38.5491 109.989C32.4425 101.563 28.8421 91.2019 28.8421 80C28.8421 69.8621 31.791 60.4129 36.8779 52.4634ZM73.621 88.9053C59.7117 91.7022 48.7548 102.659 45.9579 116.568C59.8672 113.771 70.8241 102.815 73.621 88.9053ZM114.042 47.2211C100.133 50.018 89.1759 60.9749 86.379 74.8842C100.288 72.0873 111.245 61.1304 114.042 47.2211ZM106.619 123.696C98.8643 128.43 89.7507 131.158 80 131.158C70.2493 131.158 61.1357 128.43 53.3808 123.696C65.5104 119.508 75.2482 110.19 80 98.3353C84.7518 110.19 94.4896 119.508 106.619 123.696ZM80 28.8421C68.5583 28.8421 57.9939 32.5983 49.4726 38.9448C63.4043 42.3471 74.7478 52.3513 80 65.4542C85.2522 52.3513 96.5957 42.3471 110.527 38.9448C102.006 32.5983 91.4417 28.8421 80 28.8421Z" fill="white"/>
</g>
<defs>
<clipPath id="clip0_77_64">
<rect width="160" height="160" fill="white"/>
</clipPath>
</defs>
</svg>
